<?xml version="1.0" encoding="UTF-8"?>
<!-- Generator: visioncortex VTracer 0.6.4 -->
<svg version="1.1" xmlns="http://www.w3.org/2000/svg" width="1044" height="572">
<path d="M0 0 C22.44 0 44.88 0 68 0 C68 1.32 68 2.64 68 4 C75.92 4 83.84 4 92 4 C92 5.32 92 6.64 92 8 C98.6 8 105.2 8 112 8 C112 9.32 112 10.64 112 12 C115.96 12 119.92 12 124 12 C124 13.32 124 14.64 124 16 C126.64 16 129.28 16 132 16 C132 17.32 132 18.64 132 20 C134.64 20 137.28 20 140 20 C140 21.32 140 22.64 140 24 C141.32 24 142.64 24 144 24 C144 25.32 144 26.64 144 28 C146.64 28 149.28 28 152 28 C152 29.32 152 30.64 152 32 C153.32 32 154.64 32 156 32 C156 33.32 156 34.64 156 36 C158.64 36 161.28 36 164 36 C164 37.32 164 38.64 164 40 C165.32 40 166.64 40 168 40 C168 41.32 168 42.64 168 44 C170.64 44 173.28 44 176 44 C176 45.32 176 46.64 176 48 C177.32 48 178.64 48 180 48 C180 49.32 180 50.64 180 52 C182.64 52 185.28 52 188 52 C188 53.32 188 54.64 188 56 C189.32 56 190.64 56 192 56 C192 57.32 192 58.64 192 60 C194.64 60 197.28 60 200 60 C200 61.32 200 62.64 200 64 C202.64 64 205.28 64 208 64 C208 65.32 208 66.64 208 68 C209.32 68 210.64 68 212 68 C212 69.32 212 70.64 212 72 C214.64 72 217.28 72 220 72 C220 73.32 220 74.64 220 76 C221.32 76 222.64 76 224 76 C224 77.32 224 78.64 224 80 C226.64 80 229.28 80 232 80 C232 81.32 232 82.64 232 84 C233.32 84 234.64 84 236 84 C236 85.32 236 86.64 236 88 C238.64 88 241.28 88 244 88 C244 89.32 244 90.64 244 92 C245.32 92 246.64 92 248 92 C248 93.32 248 94.64 248 96 C249.32 96 250.64 96 252 96 C252 97.32 252 98.64 252 100 C254.64 100 257.28 100 260 100 C260 101.32 260 102.64 260 104 C261.32 104 262.64 104 264 104 C264 105.32 264 106.64 264 108 C266.64 108 269.28 108 272 108 C272 109.32 272 110.64 272 112 C273.32 112 274.64 112 276 112 C276 113.32 276 114.64 276 116 C277.32 116 278.64 116 280 116 C280 118.64 280 121.28 280 124 C281.32 124 282.64 124 284 124 C284 127.96 284 131.92 284 136 C285.32 136 286.64 136 288 136 C288 138.64 288 141.28 288 144 C289.32 144 290.64 144 292 144 C292 147.96 292 151.92 292 156 C293.32 156 294.64 156 296 156 C296 158.64 296 161.28 296 164 C297.32 164 298.64 164 300 164 C300 166.64 300 169.28 300 172 C301.32 172 302.64 172 304 172 C304 175.96 304 179.92 304 184 C305.32 184 306.64 184 308 184 C308 186.64 308 189.28 308 192 C309.32 192 310.64 192 312 192 C312 194.64 312 197.28 312 200 C313.32 200 314.64 200 316 200 C316 202.64 316 205.28 316 208 C317.32 208 318.64 208 320 208 C320 211.96 320 215.92 320 220 C321.32 220 322.64 220 324 220 C324 222.64 324 225.28 324 228 C325.32 228 326.64 228 328 228 C328 231.96 328 235.92 328 240 C329.32 240 330.64 240 332 240 C332 242.64 332 245.28 332 248 C333.32 248 334.64 248 336 248 C336 250.64 336 253.28 336 256 C337.32 256 338.64 256 340 256 C340 259.96 340 263.92 340 268 C341.32 268 342.64 268 344 268 C344 270.64 344 273.28 344 276 C345.32 276 346.64 276 348 276 C348 278.64 348 281.28 348 284 C349.32 284 350.64 284 352 284 C352 287.96 352 291.92 352 296 C353.32 296 354.64 296 356 296 C356 298.64 356 301.28 356 304 C357.32 304 358.64 304 360 304 C360 306.64 360 309.28 360 312 C361.32 312 362.64 312 364 312 C364 315.96 364 319.92 364 324 C365.32 324 366.64 324 368 324 C368 326.64 368 329.28 368 332 C369.32 332 370.64 332 372 332 C372 335.96 372 339.92 372 344 C373.32 344 374.64 344 376 344 C376 346.64 376 349.28 376 352 C377.32 352 378.64 352 380 352 C380 355.96 380 359.92 380 364 C381.32 364 382.64 364 384 364 C384 366.64 384 369.28 384 372 C385.32 372 386.64 372 388 372 C388 375.96 388 379.92 388 384 C389.32 384 390.64 384 392 384 C392 390.6 392 397.2 392 404 C390.68 404 389.36 404 388 404 C388 406.64 388 409.28 388 412 C386.68 412 385.36 412 384 412 C384 413.32 384 414.64 384 416 C381.36 416 378.72 416 376 416 C376 417.32 376 418.64 376 420 C374.68 420 373.36 420 372 420 C372 421.32 372 422.64 372 424 C370.68 424 369.36 424 368 424 C368 425.32 368 426.64 368 428 C366.68 428 365.36 428 364 428 C364 429.32 364 430.64 364 432 C361.36 432 358.72 432 356 432 C356 433.32 356 434.64 356 436 C354.68 436 353.36 436 352 436 C352 437.32 352 438.64 352 440 C350.68 440 349.36 440 348 440 C348 441.32 348 442.64 348 444 C345.36 444 342.72 444 340 444 C340 445.32 340 446.64 340 448 C338.68 448 337.36 448 336 448 C336 449.32 336 450.64 336 452 C332.04 452 328.08 452 324 452 C324 453.32 324 454.64 324 456 C308.16 456 292.32 456 276 456 C276 454.68 276 453.36 276 452 C272.04 452 268.08 452 264 452 C264 450.68 264 449.36 264 448 C262.68 448 261.36 448 260 448 C260 446.68 260 445.36 260 444 C258.68 444 257.36 444 256 444 C256 442.68 256 441.36 256 440 C257.32 440 258.64 440 260 440 C260 437.36 260 434.72 260 432 C261.32 432 262.64 432 264 432 C264 430.68 264 429.36 264 428 C265.32 428 266.64 428 268 428 C268 426.68 268 425.36 268 424 C270.64 424 273.28 424 276 424 C276 422.68 276 421.36 276 420 C278.64 420 281.28 420 284 420 C284 418.68 284 417.36 284 416 C285.32 416 286.64 416 288 416 C288 414.68 288 413.36 288 412 C290.64 412 293.28 412 296 412 C296 410.68 296 409.36 296 408 C294.68 408 293.36 408 292 408 C292 406.68 292 405.36 292 404 C290.68 404 289.36 404 288 404 C288 402.68 288 401.36 288 400 C286.68 400 285.36 400 284 400 C284 398.68 284 397.36 284 396 C282.68 396 281.36 396 280 396 C280 394.68 280 393.36 280 392 C278.68 392 277.36 392 276 392 C276 390.68 276 389.36 276 388 C274.68 388 273.36 388 272 388 C272 386.68 272 385.36 272 384 C270.68 384 269.36 384 268 384 C268 382.68 268 381.36 268 380 C266.68 380 265.36 380 264 380 C264 378.68 264 377.36 264 376 C262.68 376 261.36 376 260 376 C260 374.68 260 373.36 260 372 C258.68 372 257.36 372 256 372 C256 370.68 256 369.36 256 368 C254.68 368 253.36 368 252 368 C252 366.68 252 365.36 252 364 C250.68 364 249.36 364 248 364 C248 362.68 248 361.36 248 360 C246.68 360 245.36 360 244 360 C244 358.68 244 357.36 244 356 C242.68 356 241.36 356 240 356 C240 354.68 240 353.36 240 352 C238.68 352 237.36 352 236 352 C236 350.68 236 349.36 236 348 C233.36 348 230.72 348 228 348 C228 346.68 228 345.36 228 344 C226.68 344 225.36 344 224 344 C224 342.68 224 341.36 224 340 C222.68 340 221.36 340 220 340 C220 338.68 220 337.36 220 336 C218.68 336 217.36 336 216 336 C216 334.68 216 333.36 216 332 C214.68 332 213.36 332 212 332 C212 333.32 212 334.64 212 336 C210.68 336 209.36 336 208 336 C208 337.32 208 338.64 208 340 C206.68 340 205.36 340 204 340 C204 341.32 204 342.64 204 344 C202.68 344 201.36 344 200 344 C200 345.32 200 346.64 200 348 C198.68 348 197.36 348 196 348 C196 349.32 196 350.64 196 352 C194.68 352 193.36 352 192 352 C192 353.32 192 354.64 192 356 C190.68 356 189.36 356 188 356 C188 357.32 188 358.64 188 360 C186.68 360 185.36 360 184 360 C184 361.32 184 362.64 184 364 C182.68 364 181.36 364 180 364 C180 365.32 180 366.64 180 368 C178.68 368 177.36 368 176 368 C176 369.32 176 370.64 176 372 C174.68 372 173.36 372 172 372 C172 373.32 172 374.64 172 376 C170.68 376 169.36 376 168 376 C168 377.32 168 378.64 168 380 C166.68 380 165.36 380 164 380 C164 381.32 164 382.64 164 384 C161.36 384 158.72 384 156 384 C156 385.32 156 386.64 156 388 C154.68 388 153.36 388 152 388 C152 389.32 152 390.64 152 392 C150.68 392 149.36 392 148 392 C148 393.32 148 394.64 148 396 C146.68 396 145.36 396 144 396 C144 397.32 144 398.64 144 400 C142.68 400 141.36 400 140 400 C140 401.32 140 402.64 140 404 C138.68 404 137.36 404 136 404 C136 405.32 136 406.64 136 408 C134.68 408 133.36 408 132 408 C132 409.32 132 410.64 132 412 C130.68 412 129.36 412 128 412 C128 413.32 128 414.64 128 416 C126.68 416 125.36 416 124 416 C124 417.32 124 418.64 124 420 C122.68 420 121.36 420 120 420 C120 421.32 120 422.64 120 424 C118.68 424 117.36 424 116 424 C116 425.32 116 426.64 116 428 C114.68 428 113.36 428 112 428 C112 429.32 112 430.64 112 432 C110.68 432 109.36 432 108 432 C108 433.32 108 434.64 108 436 C105.36 436 102.72 436 100 436 C100 437.32 100 438.64 100 440 C98.68 440 97.36 440 96 440 C96 441.32 96 442.64 96 444 C94.68 444 93.36 444 92 444 C92 445.32 92 446.64 92 448 C89.36 448 86.72 448 84 448 C84 449.32 84 450.64 84 452 C80.04 452 76.08 452 72 452 C72 453.32 72 454.64 72 456 C44.28 456 16.56 456 -12 456 C-12 454.68 -12 453.36 -12 452 C-15.96 452 -19.92 452 -24 452 C-24 450.68 -24 449.36 -24 448 C-25.32 448 -26.64 448 -28 448 C-28 442.72 -28 437.44 -28 432 C-26.68 432 -25.36 432 -24 432 C-24 430.68 -24 429.36 -24 428 C-21.36 428 -18.72 428 -16 428 C-16 426.68 -16 425.36 -16 424 C-13.36 424 -10.72 424 -8 424 C-8 422.68 -8 421.36 -8 420 C-4.04 420 -0.08 420 4 420 C4 418.68 4 417.36 4 416 C6.64 416 9.28 416 12 416 C12 414.68 12 413.36 12 412 C14.64 412 17.28 412 20 412 C20 410.68 20 409.36 20 408 C21.32 408 22.64 408 24 408 C24 405.36 24 402.72 24 400 C25.32 400 26.64 400 28 400 C28 398.68 28 397.36 28 396 C29.32 396 30.64 396 32 396 C32 393.36 32 390.72 32 388 C33.32 388 34.64 388 36 388 C36 385.36 36 382.72 36 380 C37.32 380 38.64 380 40 380 C40 377.36 40 374.72 40 372 C41.32 372 42.64 372 44 372 C44 370.68 44 369.36 44 368 C45.32 368 46.64 368 48 368 C48 365.36 48 362.72 48 360 C49.32 360 50.64 360 52 360 C52 357.36 52 354.72 52 352 C53.32 352 54.64 352 56 352 C56 349.36 56 346.72 56 344 C57.32 344 58.64 344 60 344 C60 341.36 60 338.72 60 336 C61.32 336 62.64 336 64 336 C64 333.36 64 330.72 64 328 C65.32 328 66.64 328 68 328 C68 326.68 68 325.36 68 324 C20.48 324 -27.04 324 -76 324 C-76 325.32 -76 326.64 -76 328 C-77.32 328 -78.64 328 -80 328 C-80 329.32 -80 330.64 -80 332 C-81.32 332 -82.64 332 -84 332 C-84 334.64 -84 337.28 -84 340 C-85.32 340 -86.64 340 -88 340 C-88 341.32 -88 342.64 -88 344 C-89.32 344 -90.64 344 -92 344 C-92 345.32 -92 346.64 -92 348 C-93.32 348 -94.64 348 -96 348 C-96 349.32 -96 350.64 -96 352 C-97.32 352 -98.64 352 -100 352 C-100 354.64 -100 357.28 -100 360 C-101.32 360 -102.64 360 -104 360 C-104 361.32 -104 362.64 -104 364 C-105.32 364 -106.64 364 -108 364 C-108 365.32 -108 366.64 -108 368 C-109.32 368 -110.64 368 -112 368 C-112 369.32 -112 370.64 -112 372 C-113.32 372 -114.64 372 -116 372 C-116 374.64 -116 377.28 -116 380 C-117.32 380 -118.64 380 -120 380 C-120 381.32 -120 382.64 -120 384 C-121.32 384 -122.64 384 -124 384 C-124 385.32 -124 386.64 -124 388 C-125.32 388 -126.64 388 -128 388 C-128 389.32 -128 390.64 -128 392 C-129.32 392 -130.64 392 -132 392 C-132 394.64 -132 397.28 -132 400 C-133.32 400 -134.64 400 -136 400 C-136 401.32 -136 402.64 -136 404 C-137.32 404 -138.64 404 -140 404 C-140 405.32 -140 406.64 -140 408 C-141.32 408 -142.64 408 -144 408 C-144 409.32 -144 410.64 -144 412 C-145.32 412 -146.64 412 -148 412 C-148 414.64 -148 417.28 -148 420 C-149.32 420 -150.64 420 -152 420 C-152 421.32 -152 422.64 -152 424 C-153.32 424 -154.64 424 -156 424 C-156 425.32 -156 426.64 -156 428 C-157.32 428 -158.64 428 -160 428 C-160 429.32 -160 430.64 -160 432 C-161.32 432 -162.64 432 -164 432 C-164 433.32 -164 434.64 -164 436 C-165.32 436 -166.64 436 -168 436 C-168 437.32 -168 438.64 -168 440 C-169.32 440 -170.64 440 -172 440 C-172 441.32 -172 442.64 -172 444 C-173.32 444 -174.64 444 -176 444 C-176 445.32 -176 446.64 -176 448 C-178.64 448 -181.28 448 -184 448 C-184 449.32 -184 450.64 -184 452 C-187.96 452 -191.92 452 -196 452 C-196 453.32 -196 454.64 -196 456 C-223.72 456 -251.44 456 -280 456 C-280 454.68 -280 453.36 -280 452 C-283.96 452 -287.92 452 -292 452 C-292 450.68 -292 449.36 -292 448 C-293.32 448 -294.64 448 -296 448 C-296 441.4 -296 434.8 -296 428 C-294.68 428 -293.36 428 -292 428 C-292 426.68 -292 425.36 -292 424 C-289.36 424 -286.72 424 -284 424 C-284 422.68 -284 421.36 -284 420 C-281.36 420 -278.72 420 -276 420 C-276 418.68 -276 417.36 -276 416 C-272.04 416 -268.08 416 -264 416 C-264 414.68 -264 413.36 -264 412 C-261.36 412 -258.72 412 -256 412 C-256 410.68 -256 409.36 -256 408 C-253.36 408 -250.72 408 -248 408 C-248 406.68 -248 405.36 -248 404 C-246.68 404 -245.36 404 -244 404 C-244 400.04 -244 396.08 -244 392 C-242.68 392 -241.36 392 -240 392 C-240 388.04 -240 384.08 -240 380 C-238.68 380 -237.36 380 -236 380 C-236 376.04 -236 372.08 -236 368 C-234.68 368 -233.36 368 -232 368 C-232 362.72 -232 357.44 -232 352 C-230.68 352 -229.36 352 -228 352 C-228 348.04 -228 344.08 -228 340 C-226.68 340 -225.36 340 -224 340 C-224 336.04 -224 332.08 -224 328 C-222.68 328 -221.36 328 -220 328 C-220 324.04 -220 320.08 -220 316 C-218.68 316 -217.36 316 -216 316 C-216 310.72 -216 305.44 -216 300 C-214.68 300 -213.36 300 -212 300 C-212 296.04 -212 292.08 -212 288 C-210.68 288 -209.36 288 -208 288 C-208 284.04 -208 280.08 -208 276 C-206.68 276 -205.36 276 -204 276 C-204 273.36 -204 270.72 -204 268 C-205.32 268 -206.64 268 -208 268 C-208 266.68 -208 265.36 -208 264 C-209.32 264 -210.64 264 -212 264 C-212 262.68 -212 261.36 -212 260 C-213.32 260 -214.64 260 -216 260 C-216 257.36 -216 254.72 -216 252 C-217.32 252 -218.64 252 -220 252 C-220 250.68 -220 249.36 -220 248 C-221.32 248 -222.64 248 -224 248 C-224 246.68 -224 245.36 -224 244 C-225.32 244 -226.64 244 -228 244 C-228 242.68 -228 241.36 -228 240 C-229.32 240 -230.64 240 -232 240 C-232 238.68 -232 237.36 -232 236 C-233.32 236 -234.64 236 -236 236 C-236 233.36 -236 230.72 -236 228 C-237.32 228 -238.64 228 -240 228 C-240 226.68 -240 225.36 -240 224 C-241.32 224 -242.64 224 -244 224 C-244 222.68 -244 221.36 -244 220 C-245.32 220 -246.64 220 -248 220 C-248 218.68 -248 217.36 -248 216 C-249.32 216 -250.64 216 -252 216 C-252 214.68 -252 213.36 -252 212 C-258.6 212 -265.2 212 -272 212 C-272 210.68 -272 209.36 -272 208 C-285.2 208 -298.4 208 -312 208 C-312 206.68 -312 205.36 -312 204 C-325.2 204 -338.4 204 -352 204 C-352 202.68 -352 201.36 -352 200 C-355.96 200 -359.92 200 -364 200 C-364 201.32 -364 202.64 -364 204 C-367.96 204 -371.92 204 -376 204 C-376 205.32 -376 206.64 -376 208 C-379.96 208 -383.92 208 -388 208 C-388 209.32 -388 210.64 -388 212 C-391.96 212 -395.92 212 -400 212 C-400 213.32 -400 214.64 -400 216 C-405.28 216 -410.56 216 -416 216 C-416 217.32 -416 218.64 -416 220 C-421.28 220 -426.56 220 -432 220 C-432 218.68 -432 217.36 -432 216 C-441.24 216 -450.48 216 -460 216 C-460 214.68 -460 213.36 -460 212 C-467.92 212 -475.84 212 -484 212 C-484 210.68 -484 209.36 -484 208 C-489.28 208 -494.56 208 -500 208 C-500 206.68 -500 205.36 -500 204 C-503.96 204 -507.92 204 -512 204 C-512 202.68 -512 201.36 -512 200 C-513.32 200 -514.64 200 -516 200 C-516 198.68 -516 197.36 -516 196 C-517.32 196 -518.64 196 -520 196 C-520 194.68 -520 193.36 -520 192 C-521.32 192 -522.64 192 -524 192 C-524 190.68 -524 189.36 -524 188 C-525.32 188 -526.64 188 -528 188 C-528 186.68 -528 185.36 -528 184 C-529.32 184 -530.64 184 -532 184 C-532 182.68 -532 181.36 -532 180 C-533.32 180 -534.64 180 -536 180 C-536 177.36 -536 174.72 -536 172 C-534.68 172 -533.36 172 -532 172 C-532 170.68 -532 169.36 -532 168 C-530.68 168 -529.36 168 -528 168 C-528 166.68 -528 165.36 -528 164 C-526.68 164 -525.36 164 -524 164 C-524 162.68 -524 161.36 -524 160 C-522.68 160 -521.36 160 -520 160 C-520 158.68 -520 157.36 -520 156 C-518.68 156 -517.36 156 -516 156 C-516 154.68 -516 153.36 -516 152 C-514.68 152 -513.36 152 -512 152 C-512 150.68 -512 149.36 -512 148 C-510.68 148 -509.36 148 -508 148 C-508 146.68 -508 145.36 -508 144 C-506.68 144 -505.36 144 -504 144 C-504 142.68 -504 141.36 -504 140 C-502.68 140 -501.36 140 -500 140 C-500 138.68 -500 137.36 -500 136 C-498.68 136 -497.36 136 -496 136 C-496 134.68 -496 133.36 -496 132 C-494.68 132 -493.36 132 -492 132 C-492 130.68 -492 129.36 -492 128 C-490.68 128 -489.36 128 -488 128 C-488 126.68 -488 125.36 -488 124 C-486.68 124 -485.36 124 -484 124 C-484 122.68 -484 121.36 -484 120 C-482.68 120 -481.36 120 -480 120 C-480 117.36 -480 114.72 -480 112 C-478.68 112 -477.36 112 -476 112 C-476 109.36 -476 106.72 -476 104 C-474.68 104 -473.36 104 -472 104 C-472 101.36 -472 98.72 -472 96 C-469.36 96 -466.72 96 -464 96 C-464 94.68 -464 93.36 -464 92 C-462.68 92 -461.36 92 -460 92 C-460 90.68 -460 89.36 -460 88 C-458.68 88 -457.36 88 -456 88 C-456 86.68 -456 85.36 -456 84 C-453.36 84 -450.72 84 -448 84 C-448 82.68 -448 81.36 -448 80 C-445.36 80 -442.72 80 -440 80 C-440 78.68 -440 77.36 -440 76 C-438.68 76 -437.36 76 -436 76 C-436 74.68 -436 73.36 -436 72 C-433.36 72 -430.72 72 -428 72 C-428 70.68 -428 69.36 -428 68 C-425.36 68 -422.72 68 -420 68 C-420 66.68 -420 65.36 -420 64 C-416.04 64 -412.08 64 -408 64 C-408 62.68 -408 61.36 -408 60 C-404.04 60 -400.08 60 -396 60 C-396 58.68 -396 57.36 -396 56 C-390.72 56 -385.44 56 -380 56 C-380 54.68 -380 53.36 -380 52 C-376.04 52 -372.08 52 -368 52 C-368 50.68 -368 49.36 -368 48 C-362.72 48 -357.44 48 -352 48 C-352 46.68 -352 45.36 -352 44 C-346.72 44 -341.44 44 -336 44 C-336 42.68 -336 41.36 -336 40 C-330.72 40 -325.44 40 -320 40 C-320 38.68 -320 37.36 -320 36 C-314.72 36 -309.44 36 -304 36 C-304 34.68 -304 33.36 -304 32 C-298.72 32 -293.44 32 -288 32 C-288 30.68 -288 29.36 -288 28 C-284.04 28 -280.08 28 -276 28 C-276 26.68 -276 25.36 -276 24 C-270.72 24 -265.44 24 -260 24 C-260 22.68 -260 21.36 -260 20 C-253.4 20 -246.8 20 -240 20 C-240 18.68 -240 17.36 -240 16 C-234.72 16 -229.44 16 -224 16 C-224 14.68 -224 13.36 -224 12 C-218.72 12 -213.44 12 -208 12 C-208 13.32 -208 14.64 -208 16 C-200.08 16 -192.16 16 -184 16 C-184 17.32 -184 18.64 -184 20 C-174.76 20 -165.52 20 -156 20 C-156 21.32 -156 22.64 -156 24 C-141.48 24 -126.96 24 -112 24 C-112 22.68 -112 21.36 -112 20 C-104.08 20 -96.16 20 -88 20 C-88 18.68 -88 17.36 -88 16 C-80.08 16 -72.16 16 -64 16 C-64 14.68 -64 13.36 -64 12 C-56.08 12 -48.16 12 -40 12 C-40 10.68 -40 9.36 -40 8 C-33.4 8 -26.8 8 -20 8 C-20 6.68 -20 5.36 -20 4 C-13.4 4 -6.8 4 0 4 C0 2.68 0 1.36 0 0 Z " fill="#000000" transform="translate(596,60)"/>
</svg>
