<svg width="1762" height="1510" viewBox="0 0 1762 1510" fill="none" xmlns="http://www.w3.org/2000/svg">
<g clip-path="url(#clip0_154_2)">
<path d="M1381.9 146.506L1338.79 229.696L1276.97 348.969C1168.64 273.88 1035.92 229.682 892.485 229.682C590.586 229.682 335.948 425.562 256.811 693.193H1098.59L990.989 900.817C949.45 881.426 904.204 871.268 858.364 871.042C857.675 871.042 856.981 871.042 856.293 871.042C850.773 871.042 845.288 871.179 839.836 871.454C782.866 874.273 727.694 892.32 680.069 923.714H233.69C245.331 1058.32 299.998 1181.09 384.353 1279.08H549.228C572.655 1359.03 626.696 1425.98 697.869 1466.47C741.312 1491.16 789.936 1505.32 839.841 1507.82C841.989 1507.92 844.143 1508.01 846.306 1508.07C846.306 1508.07 846.306 1508.07 846.345 1508.07C861.594 1509.09 876.976 1509.6 892.49 1509.61H248.056C182.961 1441.66 129.002 1363.86 88.1727 1279.07C36.1295 1170.94 5.23337 1050.69 0.902096 923.709C0.549645 913.383 0.371803 903.015 0.368569 892.604C0.32833 825.502 7.83357 758.608 22.7428 693.183C64.2804 511.211 161.46 350.419 295.38 229.672C453.499 87.1149 662.855 0.344482 892.485 0.344482C1073.21 0.368738 1241.39 54.1182 1381.9 146.506Z" fill="url(#paint0_linear_154_2)" stroke="url(#paint1_linear_154_2)" stroke-width="1.53" stroke-miterlimit="10"/>
<path d="M1468.87 898.067C1307.2 898.067 1176.14 1189.65 1176.14 1189.65C1176.14 1189.65 1307.2 1481.24 1468.87 1481.24C1630.53 1481.24 1761.6 1350.71 1761.6 1189.65C1761.6 1028.6 1630.54 898.067 1468.87 898.067ZM1580.94 1358.78C1550.65 1378.75 1515.56 1390.23 1479.33 1392.01C1475.87 1392.19 1472.37 1392.28 1468.87 1392.28H1467.54C1439.97 1391.89 1413.7 1379.35 1389.75 1360.69C1388.95 1360.05 1388.15 1359.42 1387.36 1358.78C1320.99 1305.54 1273.11 1206.14 1266.28 1191.49C1265.72 1190.29 1265.44 1189.66 1265.44 1189.66C1265.44 1189.66 1265.72 1189.03 1266.28 1187.84C1269.19 1181.58 1279.62 1159.8 1295.8 1132.77C1331.44 1073.2 1394.98 988.063 1467.54 987.04H1468.87C1470.62 987.04 1472.37 987.062 1474.12 987.107L1475.2 987.136C1476.58 987.175 1477.95 987.234 1479.32 987.301C1511.06 988.88 1541.98 997.887 1569.61 1013.6C1614.87 1039.35 1649.25 1081.93 1664.14 1132.77C1669.56 1151.25 1672.3 1170.4 1672.28 1189.65C1672.28 1260.31 1635.98 1322.52 1580.94 1358.78Z" fill="url(#paint2_linear_154_2)" stroke="url(#paint3_linear_154_2)" stroke-width="1.66" stroke-miterlimit="10"/>
<path d="M1000.7 946.281C999.56 945.364 998.4 944.452 997.246 943.55C962.809 916.69 924.977 898.644 885.312 898.081H883.411C878.366 898.081 873.337 898.202 868.375 898.455C816.235 901.034 765.741 917.551 722.154 946.286C642.945 998.464 590.712 1087.98 590.712 1189.66C590.687 1217.36 594.629 1244.93 602.416 1271.51C623.849 1344.69 673.317 1405.96 738.456 1443.02C768.029 1459.86 800.321 1471.39 833.87 1477.08C845.292 1479.02 856.818 1480.28 868.389 1480.86C870.329 1480.96 872.328 1481.04 874.307 1481.09H874.336L875.893 1481.14C878.399 1481.21 880.916 1481.24 883.444 1481.23C884.08 1481.23 884.72 1481.23 885.351 1481.23C989.767 1479.78 1081.2 1357.25 1132.5 1271.51C1155.78 1232.63 1170.77 1201.29 1174.97 1192.28C1175.77 1190.57 1176.18 1189.66 1176.18 1189.66C1176.18 1189.66 1175.77 1188.75 1174.97 1187.03C1165.1 1165.94 1096.21 1022.89 1000.7 946.281ZM1097.14 1192.04C1094.23 1198.3 1083.79 1220.07 1067.63 1247.1C1031.99 1306.67 968.445 1391.81 895.885 1392.84H894.566C892.81 1392.84 891.059 1392.84 889.313 1392.78L888.232 1392.74C886.859 1392.7 885.482 1392.64 884.119 1392.58C852.381 1391 821.456 1381.99 793.831 1366.28C748.564 1340.52 714.19 1297.95 699.29 1247.1C693.878 1228.62 691.139 1209.47 691.156 1190.22C691.156 1119.56 727.465 1057.35 782.516 1021.09C812.794 1001.12 847.872 989.646 884.094 987.85C887.561 987.681 891.05 987.596 894.561 987.592C895.003 987.592 895.449 987.592 895.885 987.592C923.459 987.976 949.723 1000.52 973.674 1019.18C974.474 1019.81 975.274 1020.44 976.065 1021.08C1042.44 1074.31 1090.31 1173.72 1097.14 1188.38C1097.7 1189.57 1097.99 1190.21 1097.99 1190.21C1097.99 1190.21 1097.7 1190.85 1097.14 1192.04Z" fill="url(#paint4_linear_154_2)" stroke="url(#paint5_linear_154_2)" stroke-width="1.66" stroke-miterlimit="10"/>
</g>
<defs>
<linearGradient id="paint0_linear_154_2" x1="691.137" y1="0.344482" x2="691.137" y2="1509.61" gradientUnits="userSpaceOnUse">
<stop stop-color="#000413"/>
<stop offset="0.333333" stop-color="#7E7E7E"/>
<stop offset="0.677083" stop-color="#C3C8D2"/>
<stop offset="1" stop-color="#EEEEEE"/>
</linearGradient>
<linearGradient id="paint1_linear_154_2" x1="691.137" y1="0.344482" x2="691.137" y2="1509.61" gradientUnits="userSpaceOnUse">
<stop stop-color="#000413"/>
<stop offset="0.333333" stop-color="#7E7E7E"/>
<stop offset="0.677083" stop-color="#C3C8D2"/>
<stop offset="1" stop-color="#EEEEEE"/>
</linearGradient>
<linearGradient id="paint2_linear_154_2" x1="1468.87" y1="898.067" x2="1468.87" y2="1481.24" gradientUnits="userSpaceOnUse">
<stop stop-color="#000413"/>
<stop offset="0.333333" stop-color="#7E7E7E"/>
<stop offset="0.677083" stop-color="#C3C8D2"/>
<stop offset="1" stop-color="#EEEEEE"/>
</linearGradient>
<linearGradient id="paint3_linear_154_2" x1="1468.87" y1="898.067" x2="1468.87" y2="1481.24" gradientUnits="userSpaceOnUse">
<stop stop-color="#000413"/>
<stop offset="0.333333" stop-color="#7E7E7E"/>
<stop offset="0.677083" stop-color="#C3C8D2"/>
<stop offset="1" stop-color="#EEEEEE"/>
</linearGradient>
<linearGradient id="paint4_linear_154_2" x1="883.444" y1="898.081" x2="883.444" y2="1481.23" gradientUnits="userSpaceOnUse">
<stop stop-color="#000413"/>
<stop offset="0.333333" stop-color="#7E7E7E"/>
<stop offset="0.677083" stop-color="#C3C8D2"/>
<stop offset="1" stop-color="#EEEEEE"/>
</linearGradient>
<linearGradient id="paint5_linear_154_2" x1="883.444" y1="898.081" x2="883.444" y2="1481.23" gradientUnits="userSpaceOnUse">
<stop stop-color="#000413"/>
<stop offset="0.333333" stop-color="#7E7E7E"/>
<stop offset="0.677083" stop-color="#C3C8D2"/>
<stop offset="1" stop-color="#EEEEEE"/>
</linearGradient>
<clipPath id="clip0_154_2">
<rect width="1762" height="1510" fill="white"/>
</clipPath>
</defs>
</svg>
