<svg width="800" height="800" viewBox="0 0 800 800" xmlns="http://www.w3.org/2000/svg">
  <defs>
    <!-- Primary gradient with modern blue tones -->
    <linearGradient id="primaryGradient" x1="0%" y1="0%" x2="100%" y2="100%">
      <stop offset="0%" stop-color="#1e3a8a" />
      <stop offset="100%" stop-color="#3b82f6" />
    </linearGradient>
    
    <!-- Secondary gradient for the infinity symbol -->
    <linearGradient id="secondaryGradient" x1="100%" y1="0%" x2="0%" y2="100%">
      <stop offset="0%" stop-color="#3b82f6" />
      <stop offset="100%" stop-color="#1e3a8a" />
    </linearGradient>
  </defs>
  
  <!-- Subtle background circle for cohesion -->
  <circle cx="400" cy="400" r="350" fill="#f8fafc" stroke="#e2e8f0" stroke-width="4" />
  
  <!-- Refined 'E' shape with cleaner geometry -->
  <path d="M200,220
           C180,320 180,480 200,580
           L500,580 L500,510 L270,510
           L270,410 L450,410 L450,340
           L270,340 L270,290 L500,290
           L500,220 Z" 
        fill="url(#primaryGradient)" />
  
  <!-- Elegant infinity symbol with proper proportions -->
  <path d="M550,400
           C600,330 670,330 670,400
           C670,470 600,470 550,400
           C500,470 430,470 430,400
           C430,330 500,330 550,400 Z"
        fill="url(#secondaryGradient)" />
        
  <!-- Subtle connecting line between E and infinity -->
  <path d="M450,400 L500,400" 
        stroke="url(#primaryGradient)" 
        stroke-width="12"
        stroke-linecap="round" />
</svg>
